<svg width="512" height="512" viewBox="0 0 512 512" fill="none" xmlns="http://www.w3.org/2000/svg">
<path fill-rule="evenodd" clip-rule="evenodd" d="M256 341.603C196.593 341.603 146.892 305.416 124.76 254.444C117.383 236.934 113.5 218.646 113.5 198.802C113.5 119.813 177.179 56 256 56C334.822 56 398.5 119.813 398.5 198.802C398.5 277.79 334.822 341.603 256 341.603ZM254.059 456C185.721 456 127.09 406.973 114.665 341.603H180.285C191.933 371.953 221.831 392.576 254.059 392.576C287.839 392.576 315.796 372.342 328.221 341.603H393.84C381.415 408.14 321.232 456 254.059 456ZM256 241.992C232.315 241.992 212.512 222.148 212.512 198.802C212.512 175.066 232.315 155.222 256 155.222C279.685 155.222 299.488 175.066 299.488 198.802C299.488 222.148 279.685 241.992 256 241.992Z" fill="#FF0048"/>
</svg>
