<svg width="512" height="512" viewBox="0 0 512 512" fill="none" xmlns="http://www.w3.org/2000/svg">
<rect x="5" y="5" width="502" height="502" rx="59" fill="#030711"/>
<path d="M134.431 254.556C154.932 301.834 200.97 335.397 256 335.397C329.014 335.397 388 276.21 388 202.948C388 129.687 329.014 70.5 256 70.5C182.986 70.5 124 129.687 124 202.948C124 221.354 127.597 238.316 134.431 254.556ZM125.079 335.397C136.589 396.027 190.899 441.5 254.202 441.5C316.425 441.5 372.174 397.11 383.684 335.397H322.899C311.39 363.908 285.493 382.674 254.202 382.674C224.349 382.674 196.654 363.547 185.864 335.397H125.079ZM215.717 202.948C215.717 224.602 234.06 243.008 256 243.008C277.94 243.008 296.283 224.602 296.283 202.948C296.283 180.934 277.94 162.528 256 162.528C234.06 162.528 215.717 180.934 215.717 202.948Z" fill="#F8FAFC"/>
<ellipse cx="256" cy="202.5" rx="40" ry="40.5" fill="#030711"/>
<rect x="5" y="5" width="502" height="502" rx="59" stroke="#1D283A" stroke-width="10"/>
</svg>
