<svg width="512" height="512" viewBox="0 0 512 512" fill="none" xmlns="http://www.w3.org/2000/svg">
<rect x="6" y="6" width="500" height="500" rx="58" fill="#030711"/>
<path d="M460 33H356C353.878 33 351.843 33.8663 350.343 35.4082C348.843 36.9502 348 39.0416 348 41.2222V98.7778C348 100.958 348.843 103.05 350.343 104.592C351.843 106.134 353.878 107 356 107H460C462.122 107 464.157 106.134 465.657 104.592C467.157 103.05 468 100.958 468 98.7778V41.2222C468 39.0416 467.157 36.9502 465.657 35.4082C464.157 33.8663 462.122 33 460 33ZM460 98.7778H356V41.2222H460V98.7778ZM408 57.6667V65.8889H412C413.061 65.8889 414.078 66.322 414.828 67.093C415.579 67.864 416 68.9097 416 70C416 71.0903 415.579 72.136 414.828 72.907C414.078 73.678 413.061 74.1111 412 74.1111H408V82.3333H416C417.061 82.3333 418.078 82.7665 418.828 83.5374C419.579 84.3084 420 85.3541 420 86.4444C420 87.5348 419.579 88.5805 418.828 89.3514C418.078 90.1224 417.061 90.5556 416 90.5556H404C402.939 90.5556 401.922 90.1224 401.172 89.3514C400.421 88.5805 400 87.5348 400 86.4444V53.5556C400 52.4652 400.421 51.4195 401.172 50.6486C401.922 49.8776 402.939 49.4444 404 49.4444H416C417.061 49.4444 418.078 49.8776 418.828 50.6486C419.579 51.4195 420 52.4652 420 53.5556C420 54.6459 419.579 55.6916 418.828 56.4625C418.078 57.2335 417.061 57.6667 416 57.6667H408ZM451.85 54.6707L442.85 87.5596C442.614 88.4219 442.109 89.1812 441.414 89.722C440.72 90.2628 439.872 90.5554 439 90.5554C438.128 90.5554 437.28 90.2628 436.586 89.722C435.891 89.1812 435.386 88.4219 435.15 87.5596L426.15 54.6707C425.867 53.6229 426 52.5026 426.519 51.5551C427.038 50.6075 427.901 49.9099 428.919 49.615C429.938 49.32 431.028 49.4517 431.952 49.9813C432.876 50.5108 433.559 51.395 433.85 52.4404L439 71.259L444.15 52.4404C444.291 51.9188 444.53 51.4309 444.855 51.0047C445.18 50.5785 445.583 50.2224 446.042 49.9568C446.501 49.6912 447.007 49.5214 447.529 49.4571C448.052 49.3928 448.583 49.4353 449.09 49.5822C449.596 49.729 450.07 49.9773 450.484 50.3128C450.897 50.6482 451.242 51.0643 451.498 51.5371C451.755 52.0099 451.918 52.5301 451.978 53.0678C452.039 53.6056 451.995 54.1503 451.85 54.6707ZM376 49.4444H372C370.939 49.4444 369.922 49.8776 369.172 50.6486C368.421 51.4195 368 52.4652 368 53.5556V86.4444C368 87.5348 368.421 88.5805 369.172 89.3514C369.922 90.1224 370.939 90.5556 372 90.5556H376C380.243 90.5556 384.313 88.823 387.314 85.7391C390.314 82.6552 392 78.4725 392 74.1111V65.8889C392 61.5276 390.314 57.3448 387.314 54.2609C384.313 51.177 380.243 49.4444 376 49.4444ZM384 74.1111C384 76.2918 383.157 78.3831 381.657 79.9251C380.157 81.4671 378.122 82.3333 376 82.3333V57.6667C378.122 57.6667 380.157 58.5329 381.657 60.0749C383.157 61.6169 384 63.7082 384 65.8889V74.1111Z" fill="url(#paint0_linear_1_17)"/>
<g filter="url(#filter0_d_1_17)">
<path d="M248.75 251.375V288.75C247.208 290.458 244.833 292.292 241.625 294.25C238.458 296.167 234.458 297.812 229.625 299.188C224.792 300.562 219.104 301.25 212.562 301.25C206.521 301.25 201.042 300.292 196.125 298.375C191.208 296.417 186.979 293.562 183.438 289.812C179.938 286.021 177.229 281.396 175.312 275.938C173.438 270.438 172.5 264.146 172.5 257.062V252C172.5 244.917 173.458 238.625 175.375 233.125C177.292 227.625 179.979 223 183.438 219.25C186.938 215.458 191.042 212.583 195.75 210.625C200.5 208.667 205.708 207.688 211.375 207.688C219.75 207.688 226.562 209.021 231.812 211.688C237.062 214.312 241.042 217.958 243.75 222.625C246.458 227.25 248.104 232.604 248.688 238.688H227.625C227.208 235.688 226.417 233.146 225.25 231.062C224.125 228.938 222.5 227.333 220.375 226.25C218.25 225.125 215.5 224.562 212.125 224.562C209.5 224.562 207.104 225.125 204.938 226.25C202.812 227.375 201 229.083 199.5 231.375C198 233.625 196.833 236.458 196 239.875C195.208 243.292 194.812 247.292 194.812 251.875V257.062C194.812 261.604 195.188 265.583 195.938 269C196.729 272.417 197.896 275.271 199.438 277.562C201.021 279.812 203.021 281.521 205.438 282.688C207.896 283.812 210.792 284.375 214.125 284.375C216.458 284.375 218.458 284.188 220.125 283.812C221.792 283.396 223.167 282.896 224.25 282.312C225.375 281.688 226.229 281.104 226.812 280.562V266.438H211.562V251.375H248.75ZM322.875 245.125V262H276.188V245.125H322.875ZM283.5 209V300H261.562V209H283.5ZM337.625 209V300H315.75V209H337.625Z" fill="url(#paint1_linear_1_17)"/>
</g>
<rect x="6" y="6" width="500" height="500" rx="58" stroke="url(#paint2_linear_1_17)" stroke-width="12"/>
<defs>
<filter id="filter0_d_1_17" x="168.5" y="205.688" width="173.125" height="101.562" filterUnits="userSpaceOnUse" color-interpolation-filters="sRGB">
<feFlood flood-opacity="0" result="BackgroundImageFix"/>
<feColorMatrix in="SourceAlpha" type="matrix" values="0 0 0 0 0 0 0 0 0 0 0 0 0 0 0 0 0 0 127 0" result="hardAlpha"/>
<feOffset dy="2"/>
<feGaussianBlur stdDeviation="2"/>
<feComposite in2="hardAlpha" operator="out"/>
<feColorMatrix type="matrix" values="0 0 0 0 0.117647 0 0 0 0 0.160784 0 0 0 0 0.223529 0 0 0 0.3 0"/>
<feBlend mode="normal" in2="BackgroundImageFix" result="effect1_dropShadow_1_17"/>
<feBlend mode="normal" in="SourceGraphic" in2="effect1_dropShadow_1_17" result="shape"/>
</filter>
<linearGradient id="paint0_linear_1_17" x1="348" y1="107" x2="469.576" y2="39.9691" gradientUnits="userSpaceOnUse">
<stop stop-color="#030711"/>
<stop offset="0.817708" stop-color="#C7D3E8"/>
</linearGradient>
<linearGradient id="paint1_linear_1_17" x1="117.292" y1="422.071" x2="393.639" y2="418.099" gradientUnits="userSpaceOnUse">
<stop stop-color="#1D2839"/>
<stop offset="0.453125" stop-color="#C7D3E8"/>
<stop offset="1" stop-color="#1D2839"/>
</linearGradient>
<linearGradient id="paint2_linear_1_17" x1="12.288" y1="464" x2="775.304" y2="387.343" gradientUnits="userSpaceOnUse">
<stop offset="0.015625" stop-color="#1E2939"/>
<stop offset="0.427083" stop-color="#E1E7EF"/>
<stop offset="1" stop-color="#1E2939"/>
</linearGradient>
</defs>
</svg>
